# Blender 5.1.1
# www.blender.org
mtllib my_model.mtl
o Куб
v -0.857418 0.326856 1.609377
v 0.000000 1.841186 0.222294
v -0.897584 1.331714 1.743844
v -0.857418 0.326856 -0.467226
v -0.897584 1.331714 -0.513737
v 0.032378 1.841186 0.225483
v 0.789358 0.326856 1.609377
v 0.829524 1.331714 1.743844
v 0.063511 1.841186 0.234927
v 0.789358 0.326856 -0.467226
v 0.829524 1.331714 -0.513737
v 0.092204 1.841186 0.250263
v -0.897584 0.326856 -0.513737
v 0.117353 1.841186 0.270903
v -0.897584 0.326856 1.655889
v 0.829524 0.326856 -0.513737
v 0.137993 1.841186 0.296052
v 0.829524 0.326856 1.655889
v -0.857418 0.213772 1.609377
v 0.153329 1.841186 0.324745
v -0.857418 0.213772 -0.467226
v 0.789358 0.213772 1.609377
v 0.162774 1.841186 0.355879
v 0.789358 0.213772 -0.467226
v -0.897584 0.326856 1.217733
v -0.897584 1.331714 1.287925
v 0.165962 1.841186 0.388256
v 0.829524 0.326856 1.217733
v 0.829524 1.331714 1.287925
v 0.162774 1.841186 0.420634
v -0.857418 0.326856 1.190008
v 0.153329 1.841186 0.451767
v 0.789358 0.326856 1.190008
v -0.857418 0.213772 1.190008
v 0.137993 1.841186 0.480460
v 0.789358 0.213772 1.190008
v -0.897584 1.331714 0.974047
v 0.117353 1.841186 0.505609
v 0.829524 0.326856 0.916083
v 0.789358 0.326856 0.901291
v 0.789358 0.213772 0.901291
v 0.092204 1.841186 0.526249
v -0.897584 0.326856 0.916083
v 0.829524 1.331714 0.974047
v 0.063511 1.841186 0.541585
v -0.857418 0.326856 0.901291
v -0.857418 0.213772 0.901291
v 0.032378 1.841186 0.551030
v -0.897584 1.331714 -0.231247
v 0.829524 0.326856 -0.242252
v 0.000000 1.841186 0.554219
v 0.789358 0.326856 -0.207381
v -0.032378 1.841186 0.551030
v 0.789358 0.213772 -0.207381
v -0.897584 0.326856 -0.242252
v 0.829524 1.331714 -0.231247
v -0.063511 1.841186 0.541585
v -0.857418 0.326856 -0.207381
v -0.092204 1.841186 0.526249
v -0.857418 0.213772 -0.207381
v 0.829524 1.412426 -0.176339
v 0.829524 1.412426 0.919139
v -0.117353 1.841186 0.505609
v -0.897584 1.412426 0.919139
v -0.137993 1.841186 0.480460
v -0.897584 1.412426 -0.176339
v 0.540797 0.326856 -0.513737
v 0.540797 1.331714 -0.513737
v -0.153329 1.841186 0.451767
v 0.540797 0.326856 1.655889
v 0.540797 1.331714 1.743844
v -0.162774 1.841186 0.420634
v 0.514061 0.326856 -0.467226
v 0.514061 0.326856 1.609377
v -0.165962 1.841186 0.388256
v 0.514061 0.213772 -0.467226
v 0.514061 0.213772 1.609377
v -0.162774 1.841186 0.355879
v 0.514061 0.213772 1.190008
v 0.540797 1.331714 1.287925
v -0.153329 1.841186 0.324745
v 0.540797 1.331714 0.974047
v 0.514061 0.213772 0.901291
v -0.137993 1.841186 0.296052
v 0.514061 0.213772 -0.207381
v 0.540797 1.331714 -0.231247
v -0.117353 1.841186 0.270903
v 0.540797 1.412426 0.919139
v 0.540797 1.412426 -0.176339
v -0.092204 1.841186 0.250263
v 0.540797 1.429878 1.743844
v -0.897584 1.429878 1.743844
v -0.063511 1.841186 0.234927
v -0.897584 1.520770 1.357003
v -0.032378 1.841186 0.225483
v 0.540797 1.520770 1.357003
v -0.162774 1.412426 0.355879
v -0.137993 1.412426 0.296052
v -0.153329 1.412426 0.324745
v -0.117353 1.412426 0.270903
v -0.063511 1.412426 0.234927
v -0.092204 1.412426 0.250263
v 0.000000 1.412426 0.222294
v -0.032378 1.412426 0.225483
v -0.165962 1.412426 0.388256
v -0.162774 1.412426 0.420634
v -0.153329 1.412426 0.451767
v -0.117353 1.412426 0.505609
v -0.137993 1.412426 0.480460
v -0.032378 1.412426 0.551030
v -0.063511 1.412426 0.541585
v 0.032378 1.412426 0.551030
v 0.032378 1.412426 0.225483
v 0.000000 1.412426 0.554219
v -0.092204 1.412426 0.526249
v 0.117353 1.412426 0.505609
v 0.125127 1.412426 0.280376
v 0.117353 1.412426 0.270903
v 0.092204 1.412426 0.526249
v 0.092204 1.412426 0.250263
v 0.153329 1.412426 0.451767
v 0.153329 1.412426 0.324745
v 0.165962 1.412426 0.388256
v 0.162774 1.412426 0.420634
v 0.162774 1.412426 0.355879
v 0.137993 1.412426 0.296052
v 0.063511 1.412426 0.541585
v 0.137993 1.412426 0.480460
v 0.063511 1.412426 0.234927
vn -1.0000 -0.0000 -0.0000
vn -0.0000 -0.0000 -1.0000
vn 1.0000 -0.0000 -0.0000
vn -0.0000 -0.0872 0.9962
vn -0.0000 -0.0000 1.0000
vn -0.0000 -1.0000 -0.0000
vn -0.0000 1.0000 -0.0000
vn -0.0000 0.5625 0.8268
vn -0.0000 0.5625 -0.8268
vn -0.0000 0.9735 0.2287
vn -0.0000 0.3432 -0.9393
vn 0.0980 -0.0000 -0.9952
vn 0.2903 -0.0000 -0.9569
vn 0.4714 -0.0000 -0.8819
vn 0.6344 -0.0000 -0.7730
vn 0.7730 -0.0000 -0.6344
vn 0.8819 -0.0000 -0.4714
vn 0.9569 -0.0000 -0.2903
vn 0.9952 -0.0000 -0.0980
vn 0.9952 -0.0000 0.0980
vn 0.9569 -0.0000 0.2903
vn 0.8819 -0.0000 0.4714
vn 0.7730 -0.0000 0.6344
vn 0.6344 -0.0000 0.7730
vn 0.4714 -0.0000 0.8819
vn 0.2903 -0.0000 0.9569
vn 0.0980 -0.0000 0.9952
vn -0.0980 -0.0000 0.9952
vn -0.2903 -0.0000 0.9569
vn -0.4714 -0.0000 0.8819
vn -0.6344 -0.0000 0.7730
vn -0.7730 -0.0000 0.6344
vn -0.8819 -0.0000 0.4714
vn -0.9569 -0.0000 0.2903
vn -0.9952 -0.0000 0.0980
vn -0.9952 -0.0000 -0.0980
vn -0.9569 -0.0000 -0.2903
vn -0.8819 -0.0000 -0.4714
vn -0.7730 -0.0000 -0.6344
vn -0.6344 -0.0000 -0.7730
vn -0.4714 -0.0000 -0.8819
vn -0.2903 -0.0000 -0.9569
vn -0.0980 -0.0000 -0.9952
vt 0.375000 0.218718
vt 0.625000 0.218718
vt 0.625000 0.250000
vt 0.375000 0.250000
vt 0.375000 0.458207
vt 0.625000 0.458207
vt 0.625000 0.500000
vt 0.375000 0.500000
vt 0.375000 0.699512
vt 0.625000 0.699512
vt 0.625000 0.750000
vt 0.375000 0.750000
vt 0.375000 0.791793
vt 0.625000 0.791793
vt 0.625000 1.000000
vt 0.375000 1.000000
vt 0.329337 0.744641
vt 0.130814 0.744641
vt 0.666793 0.750000
vt 0.666793 0.699512
vt 0.130814 0.696318
vt 0.125000 0.750000
vt 0.125000 0.699513
vt 0.329337 0.505359
vt 0.130814 0.505359
vt 0.125000 0.500000
vt 0.333207 0.500000
vt 0.369186 0.535300
vt 0.369186 0.505359
vt 0.375000 0.531282
vt 0.369186 0.744641
vt 0.333207 0.750000
vt 0.329337 0.696318
vt 0.369186 0.696318
vt 0.329337 0.505359
vt 0.130814 0.535301
vt 0.130814 0.535301
vt 0.369186 0.663050
vt 0.329337 0.663050
vt 0.130814 0.663050
vt 0.125000 0.664754
vt 0.666793 0.664754
vt 0.875000 0.664754
vt 0.875000 0.699512
vt 0.375000 0.664754
vt 0.625000 0.664754
vt 0.375000 0.000000
vt 0.625000 0.000000
vt 0.625000 0.050487
vt 0.375000 0.050487
vt 0.625000 0.531282
vt 0.125000 0.531282
vt 0.329337 0.535301
vt 0.369186 0.535301
vt 0.130814 0.663050
vt 0.625000 0.085246
vt 0.375000 0.085246
vt 0.666793 0.500000
vt 0.875000 0.500000
vt 0.875000 0.531282
vt 0.666793 0.531282
vt 0.726962 0.586928
vt 0.725100 0.588838
vt 0.722880 0.592334
vt 0.721512 0.596127
vt 0.721051 0.600072
vt 0.721513 0.604017
vt 0.722880 0.607810
vt 0.725100 0.611306
vt 0.728087 0.585774
vt 0.728087 0.614370
vt 0.731728 0.616885
vt 0.735881 0.618753
vt 0.740387 0.619904
vt 0.745074 0.620293
vt 0.749761 0.619904
vt 0.754267 0.618753
vt 0.758421 0.616885
vt 0.762061 0.614370
vt 0.765049 0.611306
vt 0.767269 0.607810
vt 0.768636 0.604017
vt 0.769097 0.600072
vt 0.768636 0.596127
vt 0.767269 0.592334
vt 0.765049 0.588838
vt 0.762061 0.585774
vt 0.758421 0.583259
vt 0.754267 0.581391
vt 0.749761 0.580240
vt 0.745074 0.579851
vt 0.740387 0.580240
vt 0.735881 0.581391
vt 0.731728 0.583259
vt 0.875000 0.750000
vt 1.000000 0.688327
vt 1.000000 1.000000
vt 0.968750 1.000000
vt 0.968750 0.688327
vt 0.937500 1.000000
vt 0.937500 0.688327
vt 0.906250 1.000000
vt 0.906250 0.688327
vt 0.875000 1.000000
vt 0.875000 0.688327
vt 0.843750 1.000000
vt 0.843750 0.688327
vt 0.863230 0.688327
vt 0.812500 1.000000
vt 0.812500 0.688327
vt 0.781250 1.000000
vt 0.781250 0.688327
vt 0.750000 1.000000
vt 0.750000 0.688327
vt 0.718750 1.000000
vt 0.718750 0.688327
vt 0.687500 1.000000
vt 0.687500 0.688327
vt 0.656250 1.000000
vt 0.656250 0.688327
vt 0.625000 0.688327
vt 0.593750 1.000000
vt 0.593750 0.688327
vt 0.562500 1.000000
vt 0.562500 0.688327
vt 0.531250 1.000000
vt 0.531250 0.688327
vt 0.500000 1.000000
vt 0.500000 0.688327
vt 0.468750 1.000000
vt 0.468750 0.688327
vt 0.437500 1.000000
vt 0.437500 0.688327
vt 0.406250 1.000000
vt 0.406250 0.688327
vt 0.375000 0.688327
vt 0.343750 1.000000
vt 0.343750 0.688327
vt 0.312500 1.000000
vt 0.312500 0.688327
vt 0.281250 1.000000
vt 0.281250 0.688327
vt 0.250000 1.000000
vt 0.250000 0.688327
vt 0.218750 1.000000
vt 0.218750 0.688327
vt 0.187500 1.000000
vt 0.187500 0.688327
vt 0.156250 1.000000
vt 0.156250 0.688327
vt 0.125000 1.000000
vt 0.125000 0.688327
vt 0.093750 1.000000
vt 0.093750 0.688327
vt 0.062500 1.000000
vt 0.062500 0.688327
vt 0.490000 0.250000
vt 0.485388 0.296822
vt 0.471731 0.341844
vt 0.449553 0.383337
vt 0.419706 0.419706
vt 0.383337 0.449553
vt 0.341844 0.471731
vt 0.296822 0.485388
vt 0.250000 0.490000
vt 0.203178 0.485388
vt 0.158156 0.471731
vt 0.116663 0.449553
vt 0.080294 0.419706
vt 0.050447 0.383337
vt 0.028269 0.341844
vt 0.014612 0.296822
vt 0.010000 0.250000
vt 0.014612 0.203178
vt 0.028269 0.158156
vt 0.050447 0.116663
vt 0.080294 0.080294
vt 0.116663 0.050447
vt 0.158156 0.028269
vt 0.203178 0.014612
vt 0.250000 0.010000
vt 0.296822 0.014612
vt 0.341844 0.028269
vt 0.383337 0.050447
vt 0.419706 0.080294
vt 0.449553 0.116663
vt 0.471731 0.158156
vt 0.485388 0.203178
vt 0.031250 1.000000
vt 0.031250 0.688327
vt 0.000000 1.000000
vt 0.000000 0.688327
s 0
f 55/1/1 49/2/1 5/3/1 13/4/1
f 67/5/2 68/6/2 11/7/2 16/8/2
f 28/9/3 29/10/3 8/11/3 18/12/3
f 70/13/4 71/14/4 3/15/4 15/16/4
f 74/17/5 1/18/5 19/18/5 77/17/5
f 71/19/3 80/20/3 96/20/3 91/19/3
f 31/21/6 1/18/6 15/22/6 25/23/6
f 73/24/6 4/25/6 13/26/6 67/27/6
f 52/28/6 10/29/6 16/8/6 50/30/6
f 74/17/6 7/31/6 18/12/6 70/32/6
f 79/33/6 36/34/6 22/31/6 77/17/6
f 73/24/2 10/29/2 24/29/2 76/35/2
f 33/34/3 7/31/3 22/31/3 36/34/3
f 58/36/1 4/25/1 21/25/1 60/37/1
f 1/18/1 31/21/1 34/21/1 19/18/1
f 40/38/3 33/34/3 36/34/3 41/38/3
f 83/39/6 41/38/6 36/34/6 79/33/6
f 7/31/6 33/34/6 28/9/6 18/12/6
f 46/40/6 31/21/6 25/23/6 43/41/6
f 82/42/7 37/43/7 26/44/7 80/20/7
f 39/45/3 44/46/3 29/10/3 28/9/3
f 15/47/1 3/48/1 26/49/1 25/50/1
f 50/30/3 56/51/3 44/46/3 39/45/3
f 82/42/8 44/46/8 62/46/8 88/42/8
f 58/36/6 46/40/6 43/41/6 55/52/6
f 85/53/6 54/54/6 41/38/6 83/39/6
f 52/28/3 40/38/3 41/38/3 54/54/3
f 31/21/1 46/40/1 47/55/1 34/21/1
f 33/34/6 40/38/6 39/45/6 28/9/6
f 25/50/1 26/49/1 37/56/1 43/57/1
f 10/29/3 52/28/3 54/54/3 24/29/3
f 76/35/6 24/29/6 54/54/6 85/53/6
f 4/25/6 58/36/6 55/52/6 13/26/6
f 68/58/7 5/59/7 49/60/7 86/61/7
f 16/8/3 11/7/3 56/51/3 50/30/3
f 46/40/1 58/36/1 60/37/1 47/55/1
f 40/38/6 52/28/6 50/30/6 39/45/6
f 43/57/1 37/56/1 49/2/1 55/1/1
f 88/42/7 89/61/7 117/62/7 126/63/7 122/64/7 125/65/7 123/66/7 124/67/7 121/68/7 128/69/7
f 118/70/7 117/62/7 89/61/7 66/60/7 64/43/7 88/42/7 128/69/7 116/71/7 119/72/7 127/73/7 112/74/7 114/75/7 110/76/7 111/77/7 115/78/7 108/79/7 109/80/7 107/81/7 106/82/7 105/83/7 97/84/7 99/85/7 98/86/7 100/87/7 102/88/7 101/89/7 104/90/7 103/91/7 113/92/7 129/93/7 120/94/7
f 44/46/3 56/51/3 61/51/3 62/46/3
f 49/2/1 37/56/1 64/56/1 66/2/1
f 86/61/9 49/60/9 66/60/9 89/61/9
f 56/51/9 86/61/9 89/61/9 61/51/9
f 61/51/7 89/61/7 88/42/7 62/46/7
f 11/7/7 68/58/7 86/61/7 56/51/7
f 21/25/6 76/35/6 85/53/6 60/37/6
f 60/37/6 85/53/6 83/39/6 47/55/6
f 37/43/8 82/42/8 88/42/8 64/43/8
f 44/46/7 82/42/7 80/20/7 29/10/7
f 47/55/6 83/39/6 79/33/6 34/21/6
f 4/25/2 73/24/2 76/35/2 21/25/2
f 34/21/6 79/33/6 77/17/6 19/18/6
f 1/18/6 74/17/6 70/32/6 15/22/6
f 10/29/6 73/24/6 67/27/6 16/8/6
f 29/10/7 80/20/7 71/19/7 8/11/7
f 7/31/5 74/17/5 77/17/5 22/31/5
f 18/12/4 8/11/4 71/14/4 70/13/4
f 13/4/2 5/3/2 68/6/2 67/5/2
f 96/20/10 94/44/10 92/95/10 91/19/10
f 3/15/5 71/14/5 91/14/5 92/15/5
f 26/49/1 3/48/1 92/48/1 94/49/1
f 80/20/11 26/44/11 94/44/11 96/20/11
f 103/96/12 2/97/12 6/98/12 113/99/12
f 113/99/13 6/98/13 9/100/13 129/101/13
f 129/101/14 9/100/14 12/102/14 120/103/14
f 120/103/15 12/102/15 14/104/15 118/105/15
f 118/105/16 14/104/16 17/106/16 126/107/16 117/108/16
f 126/107/17 17/106/17 20/109/17 122/110/17
f 122/110/18 20/109/18 23/111/18 125/112/18
f 125/112/19 23/111/19 27/113/19 123/114/19
f 123/114/20 27/113/20 30/115/20 124/116/20
f 124/116/21 30/115/21 32/117/21 121/118/21
f 121/118/22 32/117/22 35/119/22 128/120/22
f 128/120/23 35/119/23 38/15/23 116/121/23
f 116/121/24 38/15/24 42/122/24 119/123/24
f 119/123/25 42/122/25 45/124/25 127/125/25
f 127/125/26 45/124/26 48/126/26 112/127/26
f 112/127/27 48/126/27 51/128/27 114/129/27
f 114/129/28 51/128/28 53/130/28 110/131/28
f 110/131/29 53/130/29 57/132/29 111/133/29
f 111/133/30 57/132/30 59/134/30 115/135/30
f 115/135/31 59/134/31 63/16/31 108/136/31
f 108/136/32 63/16/32 65/137/32 109/138/32
f 109/138/33 65/137/33 69/139/33 107/140/33
f 107/140/34 69/139/34 72/141/34 106/142/34
f 106/142/35 72/141/35 75/143/35 105/144/35
f 105/144/36 75/143/36 78/145/36 97/146/36
f 97/146/37 78/145/37 81/147/37 99/148/37
f 99/148/38 81/147/38 84/149/38 98/150/38
f 98/150/39 84/149/39 87/151/39 100/152/39
f 100/152/40 87/151/40 90/153/40 102/154/40
f 102/154/41 90/153/41 93/155/41 101/156/41
f 27/157/7 23/158/7 20/159/7 17/160/7 14/161/7 12/162/7 9/163/7 6/164/7 2/165/7 95/166/7 93/167/7 90/168/7 87/169/7 84/170/7 81/171/7 78/172/7 75/173/7 72/174/7 69/175/7 65/176/7 63/177/7 59/178/7 57/179/7 53/180/7 51/181/7 48/182/7 45/183/7 42/184/7 38/185/7 35/186/7 32/187/7 30/188/7
f 101/156/42 93/155/42 95/189/42 104/190/42
f 104/190/43 95/189/43 2/191/43 103/192/43
o Куб.001
v -0.351463 1.536065 0.920026
v -0.635524 1.742676 0.997247
v -0.351463 1.536065 -0.150424
v -0.461797 1.742676 -0.227645
v 0.351463 1.536065 0.920026
v 0.635524 1.742676 0.997247
v 0.351463 1.536065 -0.150424
v 0.461797 1.742676 -0.227645
v -0.635524 2.367782 1.025402
v -0.454201 2.367782 -0.384707
v 0.635524 2.367782 1.025402
v 0.454201 2.367782 -0.384707
v -0.635524 1.852620 1.239122
v 0.635524 1.852620 1.239122
v -0.635524 2.367782 1.204568
v 0.635524 2.367782 1.204568
v -0.351463 1.536065 0.391663
v -0.635524 1.742676 0.392653
v 0.351463 1.536065 0.391663
v 0.635524 1.742676 0.392653
v -0.635524 2.367782 0.315129
v 0.635524 2.367782 0.315129
v 0.256251 1.536065 -0.150424
v 0.336695 1.742676 -0.227645
v 0.256251 1.536065 0.920026
v 0.463359 1.742676 0.997247
v 0.331157 2.367782 -0.384707
v 0.463359 2.367782 1.025402
v 0.293222 1.931477 -1.271058
v 0.293222 2.267588 -1.271058
v 0.463359 1.852620 1.239122
v 0.463359 2.367782 1.204568
v 0.463359 2.367782 0.315129
v 0.256251 1.536065 0.391663
v -0.289523 1.536065 -0.150424
v -0.523523 1.742676 0.997247
v -0.523523 2.367782 1.025402
v -0.523523 1.852620 1.239122
v -0.523523 2.367782 1.204568
v -0.289523 1.536065 0.391663
v -0.380412 1.742676 -0.227645
v -0.289523 1.536065 0.920026
v -0.374155 2.367782 -0.384707
v -0.331295 1.931477 -1.271058
v -0.331295 2.267588 -1.271058
v -0.523523 2.367782 0.315129
v 0.460165 1.900996 -0.384707
v 0.635524 1.888733 1.029087
v -0.635524 1.888733 1.029087
v -0.460165 1.900996 -0.384707
v -0.379068 1.900996 -0.384707
v 0.335505 1.900996 -0.384707
v 0.635524 1.963327 1.231696
v -0.635524 1.963327 1.231696
v -0.635524 1.805054 0.375993
v 0.635524 1.805054 0.375993
v 0.463359 1.963327 1.231696
v 0.293222 2.003706 -1.271058
v -0.523523 1.963327 1.231696
v -0.331295 2.003706 -1.271058
vn -0.7095 -0.6967 -0.1060
vn -0.0000 -0.3501 -0.9367
vn 0.5882 -0.8087 -0.0000
vn -0.0000 -0.3501 0.9367
vn -0.0000 -1.0000 -0.0000
vn 0.9713 -0.0084 -0.2378
vn -0.0000 1.0000 -0.0000
vn -1.0000 -0.0000 -0.0000
vn 1.0000 -0.0000 -0.0000
vn -0.0000 -0.0000 -1.0000
vn 0.9984 -0.0279 -0.0486
vn -0.0000 0.0669 0.9978
vn -0.0000 -0.9104 0.4138
vn -0.9713 -0.0084 -0.2378
vn 0.7095 -0.6967 -0.1060
vn -0.5882 -0.8087 -0.0000
vn -0.9980 -0.0316 -0.0549
vn -0.0000 0.9937 -0.1123
vn -0.0000 -0.9840 -0.1781
vn -0.0000 -0.7043 -0.7099
vn -0.9987 0.0067 -0.0510
vn -0.9482 -0.1922 -0.2530
vn 0.9990 0.0059 -0.0452
vn 0.9482 -0.1922 -0.2530
vt 0.375000 0.123397
vt 0.625000 0.123397
vt 0.625000 0.250000
vt 0.375000 0.250000
vt 0.375000 0.466137
vt 0.625000 0.466137
vt 0.625000 0.500000
vt 0.375000 0.500000
vt 0.375000 0.626603
vt 0.625000 0.626603
vt 0.625000 0.750000
vt 0.375000 0.750000
vt 0.375000 0.977971
vt 0.625000 0.977971
vt 0.625000 1.000000
vt 0.375000 1.000000
vt 0.341137 0.626603
vt 0.341137 0.750000
vt 0.625000 0.626603
vt 0.625000 0.626603
vt 0.852971 0.626603
vt 0.875000 0.626603
vt 0.875000 0.750000
vt 0.852971 0.750000
vt 0.625000 0.000000
vt 0.625000 0.000000
vt 0.625000 0.750000
vt 0.625000 0.750000
vt 0.632277 0.473414
vt 0.658863 0.500000
vt 0.625000 0.466137
vt 0.632277 0.473414
vt 0.625000 0.783863
vt 0.625000 0.783863
vt 0.875000 0.750000
vt 0.852971 0.750000
vt 0.625000 0.783863
vt 0.625000 0.783863
vt 0.852971 0.500000
vt 0.875000 0.500000
vt 0.341137 0.500000
vt 0.375000 0.000000
vt 0.147029 0.500000
vt 0.147029 0.626603
vt 0.658863 0.626603
vt 0.625000 0.977971
vt 0.658863 0.750000
vt 0.658863 0.750000
vt 0.625000 0.977971
vt 0.673990 0.321020
vt 0.673990 0.321020
vt 0.625000 0.272029
vt 0.625000 0.272029
vt 0.658863 0.500000
vt 0.852971 0.500000
vt 0.678724 0.303724
vt 0.147029 0.750000
vt 0.375000 0.783863
vt 0.375000 0.272029
vt 0.125000 0.626603
vt 0.125000 0.750000
vt 0.125000 0.500000
s 0
f 146/193/44 147/194/44 133/195/44 132/196/44
f 152/197/45 153/198/45 137/199/45 136/200/45
f 148/201/46 149/202/46 135/203/46 134/204/46
f 171/205/47 165/206/47 131/207/47 130/208/47
f 163/209/48 148/201/48 134/204/48 154/210/48
f 185/211/49 176/199/49 141/199/49 151/212/49
f 175/213/50 150/214/50 138/215/50 166/216/50
f 184/194/51 178/217/51 138/218/51 150/194/51
f 177/219/52 140/220/52 145/203/52 182/203/52
f 176/199/53 181/221/53 156/222/53 141/199/53
f 181/221/54 153/198/54 158/223/54 187/224/54
f 186/225/55 182/203/55 145/203/55 161/226/55
f 166/216/50 138/215/50 144/227/50 168/228/50
f 155/229/56 135/203/56 143/203/56 160/230/56
f 178/217/51 131/218/51 142/218/51 183/218/51
f 179/195/57 184/194/57 150/194/57 139/195/57
f 172/231/50 139/232/50 150/214/50 175/213/50
f 177/219/52 185/211/52 151/212/52 140/220/52
f 152/233/48 136/200/48 148/201/48 163/209/48
f 136/200/58 137/199/58 149/202/58 148/201/58
f 130/234/59 131/218/59 147/194/59 146/193/59
f 164/235/48 152/233/48 163/209/48 169/236/48
f 141/199/50 156/222/50 162/237/50 151/212/50
f 165/206/56 155/229/56 160/230/56 167/238/56
f 140/220/50 157/239/50 161/240/50 145/203/50
f 188/238/55 186/225/55 161/226/55 168/241/55
f 180/242/60 189/243/60 173/244/60 170/245/60
f 172/231/61 156/222/61 159/246/61 174/247/61
f 179/248/53 139/232/53 172/231/53 180/242/53
f 151/212/50 162/237/50 157/239/50 140/220/50
f 169/236/48 163/209/48 154/210/48 171/249/48
f 134/204/47 135/203/47 155/229/47 154/250/47
f 164/251/45 170/245/45 153/198/45 152/197/45
f 132/196/45 133/195/45 170/245/45 164/251/45
f 146/252/48 169/236/48 171/249/48 130/253/48
f 183/207/55 188/238/55 168/241/55 144/207/55
f 131/207/56 165/206/56 167/238/56 142/207/56
f 132/254/48 164/235/48 169/236/48 146/252/48
f 156/222/50 172/231/50 175/213/50 162/237/50
f 157/239/50 166/216/50 168/228/50 161/240/50
f 153/198/62 170/245/62 173/244/62 158/223/62
f 187/223/53 189/244/53 174/244/53 159/223/53
f 162/237/50 175/213/50 166/216/50 157/239/50
f 154/250/47 155/229/47 165/206/47 171/205/47
f 158/223/53 173/244/53 189/244/53 187/223/53
f 142/207/55 167/238/55 188/238/55 183/207/55
f 133/195/63 179/248/63 180/242/63 170/245/63
f 172/231/64 174/247/64 189/243/64 180/242/64
f 167/238/55 160/230/55 186/225/55 188/238/55
f 135/203/52 149/202/52 185/211/52 177/219/52
f 133/195/65 147/194/65 184/194/65 179/195/65
f 138/218/51 178/217/51 183/218/51 144/218/51
f 160/230/55 143/203/55 182/203/55 186/225/55
f 156/222/66 181/221/66 187/224/66 159/246/66
f 137/199/63 153/198/63 181/221/63 176/199/63
f 135/203/52 177/219/52 182/203/52 143/203/52
f 147/194/51 131/218/51 178/217/51 184/194/51
f 149/202/67 137/199/67 176/199/67 185/211/67
o Цилиндр
v 0.000000 2.037978 0.792766
v -0.081325 2.096113 -1.747349
v 0.081325 2.096113 -1.747349
v 0.011342 2.039095 0.792766
v -0.081325 2.080248 -1.745787
v 0.081325 2.080248 -1.745787
v -0.081325 2.064992 -1.741159
v 0.022248 2.042403 0.792766
v 0.081325 2.064992 -1.741159
v -0.081325 2.050932 -1.733644
v 0.032298 2.047776 0.792766
v 0.081325 2.050932 -1.733644
v 0.041108 2.055006 0.792766
v -0.081325 2.038608 -1.723530
v 0.081325 2.038608 -1.723530
v 0.048338 2.063815 0.792766
v -0.081325 2.028494 -1.711206
v 0.081325 2.028494 -1.711206
v -0.081325 2.020979 -1.697146
v 0.053710 2.073866 0.792766
v 0.081325 2.020979 -1.697146
v 0.057019 2.084772 0.792766
v -0.081325 2.016351 -1.681890
v 0.081325 2.016351 -1.681890
v 0.058136 2.096114 0.792766
v -0.081325 2.014789 -1.666024
v 0.081325 2.014789 -1.666024
v 0.057019 2.107455 0.792766
v -0.081325 2.016351 -1.650159
v 0.081325 2.016351 -1.650159
v 0.053710 2.118361 0.792766
v -0.081325 2.020979 -1.634903
v 0.081325 2.020979 -1.634903
v 0.048338 2.128412 0.792766
v -0.081325 2.028494 -1.620843
v 0.081325 2.028494 -1.620843
v 0.041108 2.137222 0.792766
v -0.081325 2.038608 -1.608519
v 0.081325 2.038608 -1.608519
v 0.032298 2.144452 0.792766
v -0.081325 2.050932 -1.598405
v 0.081325 2.050932 -1.598405
v -0.081325 2.064992 -1.590890
v 0.022248 2.149824 0.792766
v 0.081325 2.064992 -1.590890
v -0.081325 2.080248 -1.586262
v 0.011342 2.153132 0.792766
v 0.081325 2.080248 -1.586262
v 0.000000 2.154249 0.792766
v -0.081325 2.096113 -1.584700
v 0.081325 2.096113 -1.584700
v -0.081325 2.111979 -1.586262
v -0.011342 2.153132 0.792766
v 0.081325 2.111979 -1.586262
v -0.022248 2.149824 0.792766
v -0.081325 2.127235 -1.590890
v 0.081325 2.127235 -1.590890
v -0.032298 2.144452 0.792766
v -0.081325 2.141295 -1.598405
v 0.081325 2.141295 -1.598405
v -0.041108 2.137222 0.792766
v -0.081325 2.153619 -1.608519
v 0.081325 2.153619 -1.608519
v -0.048338 2.128412 0.792766
v -0.081325 2.163733 -1.620843
v 0.081325 2.163733 -1.620843
v -0.053710 2.118361 0.792766
v -0.081325 2.171248 -1.634903
v 0.081325 2.171248 -1.634903
v -0.057019 2.107455 0.792766
v -0.081325 2.175876 -1.650159
v 0.081325 2.175876 -1.650159
v -0.058136 2.096114 0.792766
v -0.081325 2.177438 -1.666024
v 0.081325 2.177438 -1.666024
v -0.057019 2.084772 0.792766
v -0.081325 2.175876 -1.681890
v 0.081325 2.175876 -1.681890
v -0.053710 2.073866 0.792766
v -0.081325 2.171248 -1.697146
v 0.081325 2.171248 -1.697146
v -0.081325 2.163733 -1.711206
v -0.048338 2.063815 0.792766
v 0.081325 2.163733 -1.711206
v -0.041108 2.055006 0.792766
v -0.081325 2.153619 -1.723530
v 0.081325 2.153619 -1.723530
v -0.032298 2.047776 0.792766
v -0.081325 2.141295 -1.733644
v 0.081325 2.141295 -1.733644
v -0.022248 2.042403 0.792766
v -0.081325 2.127235 -1.741159
v 0.081325 2.127235 -1.741159
v -0.011342 2.039095 0.792766
v -0.081325 2.111979 -1.745787
v 0.081325 2.111979 -1.745787
v 0.014727 2.022075 -1.788392
v -0.000000 2.020625 -1.788392
v 0.028888 2.026371 -1.788392
v 0.041939 2.033347 -1.788392
v 0.053379 2.042735 -1.788392
v 0.062767 2.054174 -1.788392
v 0.069743 2.067225 -1.788392
v 0.074038 2.081387 -1.788392
v 0.075489 2.096114 -1.788392
v 0.074038 2.110841 -1.788392
v 0.069743 2.125002 -1.788392
v 0.062767 2.138053 -1.788392
v 0.053379 2.149493 -1.788392
v 0.041939 2.158880 -1.788392
v 0.028888 2.165856 -1.788392
v 0.014727 2.170152 -1.788392
v -0.000000 2.171603 -1.788392
v -0.014727 2.170152 -1.788392
v -0.028888 2.165856 -1.788392
v -0.041939 2.158880 -1.788392
v -0.053379 2.149493 -1.788392
v -0.062767 2.138053 -1.788392
v -0.069743 2.125002 -1.788392
v -0.074038 2.110841 -1.788392
v -0.075489 2.096114 -1.788392
v -0.074038 2.081387 -1.788392
v -0.069743 2.067225 -1.788392
v -0.062767 2.054174 -1.788392
v -0.053379 2.042735 -1.788392
v -0.041939 2.033347 -1.788392
v -0.028888 2.026371 -1.788392
v -0.014727 2.022075 -1.788392
v 0.017914 2.006054 -1.788392
v -0.000000 2.004290 -1.788392
v 0.035140 2.011279 -1.788392
v 0.051015 2.019765 -1.788392
v 0.064929 2.031184 -1.788392
v 0.076349 2.045099 -1.788392
v 0.084834 2.060974 -1.788392
v 0.090060 2.078200 -1.788392
v 0.091824 2.096114 -1.788392
v 0.090060 2.114028 -1.788392
v 0.084834 2.131253 -1.788392
v 0.076349 2.147128 -1.788392
v 0.064929 2.161043 -1.788392
v 0.051015 2.172463 -1.788392
v 0.035140 2.180948 -1.788392
v 0.017914 2.186173 -1.788392
v -0.000000 2.187938 -1.788392
v -0.017914 2.186173 -1.788392
v -0.035140 2.180948 -1.788392
v -0.051015 2.172463 -1.788392
v -0.064929 2.161043 -1.788392
v -0.076349 2.147128 -1.788392
v -0.084834 2.131253 -1.788392
v -0.090060 2.114028 -1.788392
v -0.091824 2.096114 -1.788392
v -0.090060 2.078200 -1.788392
v -0.084834 2.060974 -1.788392
v -0.076349 2.045099 -1.788392
v -0.064929 2.031184 -1.788392
v -0.051015 2.019765 -1.788392
v -0.035140 2.011279 -1.788392
v -0.017914 2.006054 -1.788392
v 0.017914 2.006054 -1.817614
v -0.000000 2.004290 -1.817614
v 0.035140 2.011279 -1.817614
v 0.051015 2.019765 -1.817614
v 0.064929 2.031184 -1.817614
v 0.076349 2.045099 -1.817614
v 0.084834 2.060974 -1.817614
v 0.090060 2.078200 -1.817614
v 0.091824 2.096114 -1.817614
v 0.090060 2.114028 -1.817614
v 0.084834 2.131253 -1.817614
v 0.076349 2.147128 -1.817614
v 0.064929 2.161043 -1.817614
v 0.051015 2.172463 -1.817614
v 0.035140 2.180948 -1.817614
v 0.017914 2.186173 -1.817614
v -0.000000 2.187938 -1.817614
v -0.017914 2.186173 -1.817614
v -0.035140 2.180948 -1.817614
v -0.051015 2.172463 -1.817614
v -0.064929 2.161043 -1.817614
v -0.076349 2.147128 -1.817614
v -0.084834 2.131253 -1.817614
v -0.090060 2.114028 -1.817614
v -0.091824 2.096114 -1.817614
v -0.090060 2.078200 -1.817614
v -0.084834 2.060974 -1.817614
v -0.076349 2.045099 -1.817614
v -0.064929 2.031184 -1.817614
v -0.051015 2.019765 -1.817614
v -0.035140 2.011279 -1.817614
v -0.017914 2.006054 -1.817614
v 0.006398 2.038608 -1.608519
v 0.000000 2.037978 -1.609287
v 0.011342 2.039095 -1.608119
v 0.022248 2.042403 -1.605404
v 0.032298 2.047776 -1.600995
v 0.036144 2.050932 -1.598405
v 0.041108 2.055006 -1.596228
v 0.048338 2.063815 -1.591519
v 0.048967 2.064992 -1.590890
v 0.053710 2.073866 -1.588198
v 0.055646 2.080248 -1.586262
v 0.057019 2.084772 -1.585817
v 0.058136 2.096113 -1.584700
v 0.058136 2.096114 -1.584700
v 0.057019 2.107455 -1.585817
v 0.055646 2.111979 -1.586262
v 0.053710 2.118361 -1.588198
v 0.048967 2.127235 -1.590890
v 0.048338 2.128412 -1.591519
v 0.041108 2.137222 -1.596228
v 0.036145 2.141295 -1.598405
v 0.032298 2.144452 -1.600996
v 0.022248 2.149824 -1.605405
v 0.011342 2.153132 -1.608120
v 0.006401 2.153619 -1.608519
v 0.000000 2.154249 -1.609287
v -0.006401 2.153619 -1.608519
v -0.011342 2.153132 -1.608120
v -0.022248 2.149824 -1.605405
v -0.032298 2.144452 -1.600996
v -0.036145 2.141295 -1.598405
v -0.041108 2.137222 -1.596228
v -0.048338 2.128412 -1.591519
v -0.048967 2.127235 -1.590890
v -0.053710 2.118361 -1.588198
v -0.055646 2.111979 -1.586262
v -0.057019 2.107455 -1.585817
v -0.058136 2.096114 -1.584700
v -0.058136 2.096113 -1.584700
v -0.057019 2.084772 -1.585817
v -0.055646 2.080248 -1.586262
v -0.053710 2.073866 -1.588198
v -0.048967 2.064992 -1.590890
v -0.048338 2.063815 -1.591519
v -0.041108 2.055006 -1.596228
v -0.036144 2.050932 -1.598405
v -0.032298 2.047776 -1.600995
v -0.022248 2.042403 -1.605404
v -0.011342 2.039095 -1.608119
v -0.006398 2.038608 -1.608519
v -0.041939 2.158880 -1.717118
v -0.048351 2.153619 -1.723530
v -0.053379 2.149493 -1.726916
v 0.069743 2.067225 -1.741836
v 0.073693 2.080248 -1.745787
v 0.074038 2.081387 -1.745899
v -0.062767 2.138053 -1.735376
v -0.060106 2.141295 -1.733644
v 0.075489 2.096113 -1.747349
v 0.075489 2.096114 -1.747349
v -0.069743 2.125002 -1.741836
v -0.068549 2.127235 -1.741159
v 0.074038 2.110841 -1.745899
v -0.074038 2.110841 -1.745899
v -0.073693 2.111979 -1.745787
v 0.073693 2.111979 -1.745787
v 0.069743 2.125002 -1.741836
v -0.075489 2.096114 -1.747349
v 0.068549 2.127235 -1.741159
v 0.062767 2.138053 -1.735376
v -0.075489 2.096113 -1.747349
v -0.074038 2.081387 -1.745899
v 0.060106 2.141295 -1.733644
v 0.053379 2.149493 -1.726916
v -0.073693 2.080248 -1.745787
v -0.069743 2.067225 -1.741836
v 0.048351 2.153619 -1.723530
v 0.041939 2.158880 -1.717118
v -0.068549 2.064992 -1.741159
v -0.062767 2.054174 -1.735377
v 0.032862 2.163733 -1.711206
v 0.028888 2.165856 -1.707233
v 0.003598 2.020979 -1.697146
v -0.000000 2.020625 -1.695978
v 0.014727 2.022075 -1.699197
v -0.060106 2.050932 -1.733644
v -0.053379 2.042735 -1.726916
v 0.014727 2.170152 -1.699196
v 0.028888 2.026371 -1.707234
v -0.048350 2.038608 -1.723530
v -0.041939 2.033347 -1.717119
v 0.003603 2.171248 -1.697146
v -0.000000 2.171603 -1.695976
v 0.032861 2.028494 -1.711206
v 0.041939 2.033347 -1.717119
v -0.032861 2.028494 -1.711206
v -0.028888 2.026371 -1.707234
v -0.003603 2.171248 -1.697146
v -0.014727 2.170152 -1.699196
v 0.053379 2.042735 -1.726916
v 0.048350 2.038608 -1.723530
v -0.014727 2.022075 -1.699197
v -0.028888 2.165856 -1.707233
v 0.060106 2.050932 -1.733644
v 0.062767 2.054174 -1.735377
v -0.003598 2.020979 -1.697146
v -0.032862 2.163733 -1.711206
v 0.068549 2.064992 -1.741159
vn 0.0980 -0.9952 -0.0000
vn 0.2903 -0.9569 -0.0000
vn 0.4714 -0.8819 -0.0000
vn 0.6344 -0.7730 -0.0000
vn 0.7730 -0.6344 -0.0000
vn 0.8819 -0.4714 -0.0000
vn 0.9569 -0.2903 -0.0000
vn 0.9952 -0.0980 -0.0000
vn 0.9952 0.0980 -0.0000
vn 0.9569 0.2903 -0.0000
vn 0.8819 0.4714 -0.0000
vn 0.7730 0.6344 -0.0000
vn 0.6344 0.7730 -0.0000
vn 0.4714 0.8819 -0.0000
vn 0.2903 0.9569 -0.0000
vn 0.0980 0.9952 -0.0000
vn -0.0980 0.9952 -0.0000
vn -0.2903 0.9569 -0.0000
vn -0.4714 0.8819 -0.0000
vn -0.6344 0.7730 -0.0000
vn -0.7730 0.6344 -0.0000
vn -0.8819 0.4714 -0.0000
vn -0.9569 0.2903 -0.0000
vn -0.9952 0.0980 -0.0000
vn -0.9952 -0.0980 -0.0000
vn -0.9569 -0.2903 -0.0000
vn -0.8819 -0.4714 -0.0000
vn -0.7730 -0.6344 -0.0000
vn -0.6344 -0.7730 -0.0000
vn -0.4714 -0.8819 -0.0000
vn -0.2903 -0.9569 -0.0000
vn -0.0980 -0.9952 -0.0000
vn -0.0000 -0.0000 1.0000
vn -0.0000 -0.0000 -1.0000
vn -0.0000 -0.0980 -0.9952
vn -0.0000 -0.2903 -0.9569
vn -0.0000 -0.4714 -0.8819
vn -0.0000 -0.6344 -0.7730
vn -0.0000 -0.7730 -0.6344
vn -0.0000 -0.8819 -0.4714
vn -0.0000 -0.9569 -0.2903
vn -0.0000 -0.9952 -0.0980
vn -0.0000 -0.9952 0.0980
vn -0.0000 -0.9569 0.2903
vn -0.0000 -0.8819 0.4714
vn -0.0000 -0.7730 0.6344
vn -0.0000 -0.6344 0.7730
vn -0.0000 -0.4714 0.8819
vn -0.0000 -0.2903 0.9569
vn -0.0000 -0.0980 0.9952
vn -0.0000 0.0980 0.9952
vn -0.0000 0.2903 0.9569
vn -0.0000 0.4714 0.8819
vn -0.0000 0.6344 0.7730
vn -0.0000 0.7730 0.6344
vn -0.0000 0.8819 0.4714
vn -0.0000 0.9569 0.2903
vn -0.0000 0.9952 0.0980
vn -0.0000 0.9952 -0.0980
vn -0.0000 0.9569 -0.2903
vn -0.0000 0.8819 -0.4714
vn -0.0000 0.7730 -0.6344
vn -0.0000 0.6344 -0.7730
vn -0.0000 0.4714 -0.8819
vn 1.0000 -0.0000 -0.0000
vn -0.0000 0.2903 -0.9569
vn -0.0000 0.0980 -0.9952
vn -1.0000 -0.0000 -0.0000
vt 0.968750 0.500000
vt 1.000000 0.500000
vt 1.000000 0.951882
vt 0.982372 0.951738
vt 0.968750 0.951663
vt 0.937500 0.500000
vt 0.937500 0.951152
vt 0.906250 0.500000
vt 0.906250 0.950322
vt 0.875000 0.500000
vt 0.892608 0.949835
vt 0.875000 0.949425
vt 0.843750 0.948540
vt 0.843750 0.500000
vt 0.812500 0.947915
vt 0.812500 0.500000
vt 0.840092 0.948421
vt 0.781250 0.947467
vt 0.781250 0.500000
vt 0.794214 0.947551
vt 0.750000 0.947257
vt 0.750000 0.500000
vt 0.718750 0.947467
vt 0.718750 0.500000
vt 0.687500 0.947915
vt 0.687500 0.500000
vt 0.705787 0.947551
vt 0.656250 0.948540
vt 0.656250 0.500000
vt 0.659909 0.948421
vt 0.625000 0.949426
vt 0.625000 0.500000
vt 0.593750 0.950322
vt 0.593750 0.500000
vt 0.607393 0.949835
vt 0.562500 0.951152
vt 0.562500 0.500000
vt 0.531250 0.951663
vt 0.531250 0.500000
vt 0.500000 0.951882
vt 0.500000 0.500000
vt 0.517636 0.951738
vt 0.468750 0.951663
vt 0.468750 0.500000
vt 0.482364 0.951738
vt 0.437500 0.951152
vt 0.437500 0.500000
vt 0.406250 0.950322
vt 0.406250 0.500000
vt 0.375000 0.949426
vt 0.375000 0.500000
vt 0.392607 0.949835
vt 0.343750 0.500000
vt 0.343750 0.948540
vt 0.312500 0.500000
vt 0.340091 0.948421
vt 0.312500 0.947915
vt 0.281250 0.500000
vt 0.294213 0.947551
vt 0.281250 0.947467
vt 0.250000 0.500000
vt 0.250000 0.947257
vt 0.218750 0.500000
vt 0.218750 0.947467
vt 0.187500 0.500000
vt 0.205786 0.947551
vt 0.187500 0.947915
vt 0.156250 0.500000
vt 0.159908 0.948421
vt 0.156250 0.948540
vt 0.125000 0.500000
vt 0.125000 0.949425
vt 0.093750 0.500000
vt 0.107392 0.949835
vt 0.093750 0.950322
vt 0.062500 0.500000
vt 0.062500 0.951152
vt 0.031250 0.500000
vt 0.031250 0.951663
vt 0.000000 0.500000
vt 0.017628 0.951738
vt 0.000000 0.951882
vt 0.703178 0.485388
vt 0.750000 0.490000
vt 0.796822 0.485388
vt 0.841844 0.471731
vt 0.883337 0.449553
vt 0.919706 0.419706
vt 0.949553 0.383337
vt 0.971731 0.341844
vt 0.985388 0.296822
vt 0.990000 0.250000
vt 0.985388 0.203178
vt 0.971731 0.158156
vt 0.949553 0.116663
vt 0.919706 0.080294
vt 0.883337 0.050447
vt 0.841844 0.028269
vt 0.796822 0.014612
vt 0.750000 0.010000
vt 0.703178 0.014612
vt 0.658156 0.028269
vt 0.616663 0.050447
vt 0.580294 0.080294
vt 0.550447 0.116663
vt 0.528269 0.158156
vt 0.514612 0.203178
vt 0.510000 0.250000
vt 0.514612 0.296822
vt 0.528269 0.341844
vt 0.550447 0.383337
vt 0.580294 0.419706
vt 0.616663 0.449553
vt 0.658156 0.471731
vt 0.406250 0.962556
vt 0.375000 0.962556
vt 0.388736 0.962556
vt 0.281250 0.962556
vt 0.312500 0.962556
vt 0.812500 0.962556
vt 0.781250 0.962556
vt 0.781250 0.962556
vt 0.783763 0.962556
vt 0.343750 0.962556
vt 0.352607 0.962556
vt 0.750000 0.962556
vt 0.750000 0.962556
vt 0.317847 0.962556
vt 0.718750 0.962556
vt 0.283762 0.962556
vt 0.687500 0.962556
vt 0.716238 0.962556
vt 0.250000 0.962556
vt 0.656250 0.962556
vt 0.682153 0.962556
vt 0.218750 0.962556
vt 0.218750 0.962556
vt 0.250000 0.962556
vt 0.625000 0.962556
vt 0.647393 0.962556
vt 0.187500 0.962556
vt 0.216237 0.962556
vt 0.593750 0.962556
vt 0.611264 0.962556
vt 0.156250 0.962556
vt 0.182152 0.962556
vt 0.562500 0.962556
vt 0.572014 0.962556
vt 1.000000 0.962556
vt 0.968750 0.962556
vt 0.992365 0.962556
vt 0.125000 0.962556
vt 0.147392 0.962556
vt 0.531250 0.962556
vt 0.937500 0.962556
vt 0.093750 0.962556
vt 0.111263 0.962556
vt 0.500000 0.962556
vt 0.507644 0.962556
vt 0.906250 0.962556
vt 0.927988 0.962556
vt 0.062500 0.962556
vt 0.072012 0.962556
vt 0.468750 0.962556
vt 0.492356 0.962556
vt 0.875000 0.962556
vt 0.888737 0.962556
vt 0.031250 0.962556
vt 0.437500 0.962556
vt 0.843750 0.962556
vt 0.843750 0.962556
vt 0.852608 0.962556
vt 0.000000 0.962556
vt 0.007635 0.962556
vt 0.427986 0.962556
vt 0.817848 0.962556
vt 0.419706 0.419706
vt 0.383337 0.449553
vt 0.341844 0.471731
vt 0.296822 0.485388
vt 0.250000 0.490000
vt 0.203178 0.485388
vt 0.158156 0.471731
vt 0.116663 0.449553
vt 0.080294 0.419706
vt 0.050447 0.383337
vt 0.028269 0.341844
vt 0.014612 0.296822
vt 0.010000 0.250000
vt 0.014612 0.203178
vt 0.028269 0.158156
vt 0.050447 0.116663
vt 0.080294 0.080294
vt 0.116663 0.050447
vt 0.158156 0.028269
vt 0.203178 0.014612
vt 0.250000 0.010000
vt 0.296822 0.014612
vt 0.341844 0.028269
vt 0.383337 0.050447
vt 0.419706 0.080294
vt 0.449553 0.116663
vt 0.471731 0.158156
vt 0.485388 0.203178
vt 0.490000 0.250000
vt 0.485388 0.296822
vt 0.471731 0.341844
vt 0.449553 0.383337
vt 1.000000 0.982060
vt 1.000000 1.000000
vt 0.968750 1.000000
vt 0.968750 0.976539
vt 0.970993 0.977601
vt 0.970993 0.522399
vt 0.968750 0.523461
vt 1.000000 0.517940
vt 0.937500 1.000000
vt 0.937500 0.960725
vt 0.942075 0.964395
vt 0.942075 0.535604
vt 0.937500 0.539275
vt 0.906250 1.000000
vt 0.906250 0.934771
vt 0.913457 0.942951
vt 0.913457 0.557049
vt 0.906250 0.565229
vt 0.875000 1.000000
vt 0.875000 0.898633
vt 0.885465 0.914091
vt 0.885465 0.585909
vt 0.875000 0.601367
vt 0.843750 1.000000
vt 0.843750 0.851017
vt 0.858744 0.878926
vt 0.858744 0.621074
vt 0.843750 0.648983
vt 0.812500 1.000000
vt 0.812500 0.761061
vt 0.817058 0.795273
vt 0.834921 0.838805
vt 0.834921 0.661194
vt 0.817058 0.704727
vt 0.812500 0.738939
vt 0.781250 1.000000
vt 0.810107 0.750000
vt 0.750000 1.000000
vt 0.718750 1.000000
vt 0.687500 1.000000
vt 0.656250 1.000000
vt 0.625000 1.000000
vt 0.625000 0.769668
vt 0.626947 0.750000
vt 0.625000 0.730332
vt 0.593750 1.000000
vt 0.593750 0.861111
vt 0.601753 0.849288
vt 0.615376 0.818391
vt 0.623765 0.784865
vt 0.623765 0.715135
vt 0.615376 0.681609
vt 0.601753 0.650712
vt 0.593750 0.638889
vt 0.562500 1.000000
vt 0.562500 0.900529
vt 0.565115 0.898595
vt 0.584696 0.876370
vt 0.584696 0.623630
vt 0.565115 0.601404
vt 0.562500 0.599471
vt 0.531250 1.000000
vt 0.531250 0.921061
vt 0.544322 0.915110
vt 0.531250 0.578939
vt 0.544322 0.584890
vt 0.500000 1.000000
vt 0.500000 0.928714
vt 0.522340 0.925280
vt 0.500000 0.571286
vt 0.522340 0.574720
vt 0.500000 0.928714
vt 0.468750 1.000000
vt 0.468750 0.921062
vt 0.477660 0.925280
vt 0.468750 0.578938
vt 0.477660 0.574720
vt 0.437500 1.000000
vt 0.437500 0.900529
vt 0.455677 0.915110
vt 0.437500 0.599471
vt 0.455677 0.584890
vt 0.406250 1.000000
vt 0.406250 0.861112
vt 0.415304 0.876370
vt 0.434884 0.898595
vt 0.406250 0.638888
vt 0.434884 0.601404
vt 0.415304 0.623630
vt 0.375000 1.000000
vt 0.375000 0.769677
vt 0.376234 0.784865
vt 0.384623 0.818391
vt 0.398246 0.849288
vt 0.375000 0.730323
vt 0.398246 0.650712
vt 0.384623 0.681609
vt 0.376234 0.715135
vt 0.343750 1.000000
vt 0.373052 0.750000
vt 0.312500 1.000000
vt 0.281250 1.000000
vt 0.250000 1.000000
vt 0.218750 1.000000
vt 0.187500 1.000000
vt 0.187500 0.761074
vt 0.189896 0.750000
vt 0.187500 0.738926
vt 0.156250 1.000000
vt 0.156250 0.851020
vt 0.165081 0.838805
vt 0.182944 0.795273
vt 0.182944 0.704727
vt 0.165081 0.661194
vt 0.156250 0.648980
vt 0.125000 1.000000
vt 0.125000 0.898635
vt 0.141258 0.878926
vt 0.141258 0.621074
vt 0.125000 0.601365
vt 0.093750 1.000000
vt 0.093750 0.934772
vt 0.114536 0.914091
vt 0.114536 0.585909
vt 0.093750 0.565228
vt 0.062500 1.000000
vt 0.062500 0.960726
vt 0.086544 0.942951
vt 0.062500 0.539274
vt 0.086544 0.557049
vt 0.490000 0.250000
vt 0.250000 0.490000
vt 0.010000 0.250000
vt 0.031250 1.000000
vt 0.031250 0.976539
vt 0.057926 0.964395
vt 0.031250 0.523460
vt 0.057926 0.535604
vt 0.000000 1.000000
vt 0.000000 0.982060
vt 0.029009 0.977601
vt 0.000000 0.517940
vt 0.000000 0.517940
vt 0.029009 0.522399
s 0
f 193/255/68 190/256/68 383/257/68 382/258/68 384/259/68
f 197/260/69 193/255/69 384/259/69 385/261/69
f 200/262/70 197/260/70 385/261/70 386/263/70
f 202/264/71 200/262/71 386/263/71 387/265/71 388/266/71
f 389/267/72 205/268/72 202/264/72 388/266/72
f 391/269/73 209/270/73 205/268/73 389/267/73 390/271/73
f 393/272/74 211/273/74 209/270/74 391/269/74 392/274/74
f 395/275/75 214/276/75 211/273/75 393/272/75 394/275/75
f 396/277/76 217/278/76 214/276/76 395/275/76
f 398/279/77 220/280/77 217/278/77 396/277/77 397/281/77
f 400/282/78 223/283/78 220/280/78 398/279/78 399/284/78
f 401/285/79 226/286/79 223/283/79 400/282/79
f 403/287/80 229/288/80 226/286/80 401/285/80 402/289/80
f 404/290/81 233/291/81 229/288/81 403/287/81
f 405/292/82 236/293/82 233/291/82 404/290/82
f 407/294/83 238/295/83 236/293/83 405/292/83 406/296/83
f 409/297/84 242/298/84 238/295/84 407/294/84 408/299/84
f 410/300/85 244/301/85 242/298/85 409/297/85
f 411/302/86 247/303/86 244/301/86 410/300/86
f 413/304/87 250/305/87 247/303/87 411/302/87 412/306/87
f 253/307/88 250/305/88 413/304/88 414/308/88
f 256/309/89 253/307/89 414/308/89 415/310/89 416/311/89
f 259/312/90 256/309/90 416/311/90 417/313/90 418/314/90
f 262/315/91 259/312/91 418/314/91 419/316/91
f 265/317/92 262/315/92 419/316/92 420/316/92 421/318/92
f 268/319/93 265/317/93 421/318/93 422/320/93 423/321/93
f 272/322/94 268/319/94 423/321/94 424/323/94 425/324/94
f 274/325/95 272/322/95 425/324/95 426/326/95
f 277/327/96 274/325/96 426/326/96 427/328/96 428/329/96
f 280/330/97 277/327/97 428/329/97 429/331/97
f 283/332/98 280/330/98 429/331/98 430/333/98
f 190/334/99 283/332/99 430/333/99 431/335/99 383/336/99
f 283/337/100 190/338/100 193/339/100 197/340/100 200/341/100 202/342/100 205/343/100 209/344/100 211/345/100 214/346/100 217/347/100 220/348/100 223/349/100 226/350/100 229/351/100 233/352/100 236/353/100 238/354/100 242/355/100 244/356/100 247/357/100 250/358/100 253/359/100 256/360/100 259/361/100 262/362/100 265/363/100 268/364/100 272/365/100 274/366/100 277/367/100 280/368/100
f 432/369/87 305/369/87 306/370/87 434/370/87 433/371/87
f 309/372/100 308/373/100 340/373/100 341/372/100
f 435/374/74 292/374/74 293/375/74 437/376/74 436/377/74
f 434/370/88 306/370/88 307/378/88 438/378/88 439/379/88
f 437/376/75 293/375/75 294/380/75 441/380/75 440/381/75
f 438/378/89 307/378/89 308/373/89 442/373/89 443/382/89
f 441/380/76 294/380/76 295/383/76 444/383/76
f 442/373/90 308/373/90 309/372/90 445/372/90 446/384/90
f 444/383/77 295/383/77 296/385/77 448/385/77 447/386/77
f 445/372/91 309/372/91 310/387/91 449/387/91
f 448/385/78 296/385/78 297/388/78 451/388/78 450/389/78
f 310/387/92 311/390/92 453/391/92 452/392/92 449/387/92
f 451/388/79 297/388/79 298/393/79 455/393/79 454/394/79
f 311/390/93 312/395/93 457/395/93 456/396/93 453/391/93
f 455/393/80 298/393/80 299/397/80 459/397/80 458/398/80
f 312/395/94 313/399/94 461/399/94 460/400/94 457/395/94
f 459/397/81 299/397/81 300/401/81 463/401/81 462/402/81
f 287/403/68 286/404/68 466/404/68 464/405/68 465/403/68
f 313/399/95 314/406/95 468/406/95 467/407/95 461/399/95
f 463/401/82 300/401/82 301/408/82 469/408/82
f 286/404/69 288/409/69 470/409/69 466/404/69
f 314/406/96 315/410/96 472/410/96 471/411/96 468/406/96
f 469/408/83 301/408/83 302/412/83 474/412/83 473/413/83
f 288/409/70 289/414/70 476/414/70 475/415/70 470/409/70
f 315/410/97 316/416/97 478/416/97 477/417/97 472/410/97
f 474/412/84 302/412/84 303/418/84 480/418/84 479/419/84
f 289/414/71 290/420/71 481/420/71 482/421/71 476/414/71
f 316/416/98 317/422/98 483/422/98 478/416/98
f 480/418/85 303/418/85 304/423/85 484/423/85
f 481/420/72 290/420/72 291/424/72 486/425/72 485/426/72
f 317/422/99 287/427/99 465/427/99 487/428/99 483/422/99
f 484/423/86 304/423/86 305/369/86 432/369/86 488/429/86
f 486/425/73 291/424/73 292/374/73 435/374/73 489/430/73
f 344/395/93 343/390/93 375/390/93 376/395/93
f 296/385/100 295/383/100 327/383/100 328/385/100
f 310/387/100 309/372/100 341/372/100 342/387/100
f 297/388/100 296/385/100 328/385/100 329/388/100
f 311/390/100 310/387/100 342/387/100 343/390/100
f 298/393/100 297/388/100 329/388/100 330/393/100
f 312/395/100 311/390/100 343/390/100 344/395/100
f 299/397/100 298/393/100 330/393/100 331/397/100
f 313/399/100 312/395/100 344/395/100 345/399/100
f 300/401/100 299/397/100 331/397/100 332/401/100
f 286/404/100 287/403/100 319/403/100 318/404/100
f 314/406/100 313/399/100 345/399/100 346/406/100
f 301/408/100 300/401/100 332/401/100 333/408/100
f 288/409/100 286/404/100 318/404/100 320/409/100
f 315/410/100 314/406/100 346/406/100 347/410/100
f 302/412/100 301/408/100 333/408/100 334/412/100
f 289/414/100 288/409/100 320/409/100 321/414/100
f 316/416/100 315/410/100 347/410/100 348/416/100
f 303/418/100 302/412/100 334/412/100 335/418/100
f 290/420/100 289/414/100 321/414/100 322/420/100
f 317/422/100 316/416/100 348/416/100 349/422/100
f 304/423/100 303/418/100 335/418/100 336/423/100
f 291/424/100 290/420/100 322/420/100 323/424/100
f 287/427/100 317/422/100 349/422/100 319/427/100
f 305/369/100 304/423/100 336/423/100 337/369/100
f 292/374/100 291/424/100 323/424/100 324/374/100
f 306/370/100 305/369/100 337/369/100 338/370/100
f 293/375/100 292/374/100 324/374/100 325/375/100
f 307/378/100 306/370/100 338/370/100 339/378/100
f 294/380/100 293/375/100 325/375/100 326/380/100
f 308/373/100 307/378/100 339/378/100 340/373/100
f 295/383/100 294/380/100 326/380/100 327/383/100
f 354/431/101 353/432/101 352/433/101 350/434/101 351/435/101 381/436/101 380/437/101 379/438/101 378/439/101 377/440/101 376/441/101 375/442/101 374/443/101 373/444/101 372/445/101 371/446/101 370/447/101 369/448/101 368/449/101 367/450/101 366/451/101 365/452/101 364/453/101 363/454/101 362/455/101 361/456/101 360/457/101 359/458/101 358/459/101 357/460/101 356/461/101 355/462/101
f 331/397/80 330/393/80 362/393/80 363/397/80
f 345/399/94 344/395/94 376/395/94 377/399/94
f 332/401/81 331/397/81 363/397/81 364/401/81
f 318/404/68 319/403/68 351/403/68 350/404/68
f 346/406/95 345/399/95 377/399/95 378/406/95
f 333/408/82 332/401/82 364/401/82 365/408/82
f 320/409/69 318/404/69 350/404/69 352/409/69
f 347/410/96 346/406/96 378/406/96 379/410/96
f 334/412/83 333/408/83 365/408/83 366/412/83
f 321/414/70 320/409/70 352/409/70 353/414/70
f 348/416/97 347/410/97 379/410/97 380/416/97
f 335/418/84 334/412/84 366/412/84 367/418/84
f 322/420/71 321/414/71 353/414/71 354/420/71
f 349/422/98 348/416/98 380/416/98 381/422/98
f 336/423/85 335/418/85 367/418/85 368/423/85
f 323/424/72 322/420/72 354/420/72 355/424/72
f 319/427/99 349/422/99 381/422/99 351/427/99
f 337/369/86 336/423/86 368/423/86 369/369/86
f 324/374/73 323/424/73 355/424/73 356/374/73
f 338/370/87 337/369/87 369/369/87 370/370/87
f 325/375/74 324/374/74 356/374/74 357/375/74
f 339/378/88 338/370/88 370/370/88 371/378/88
f 326/380/75 325/375/75 357/375/75 358/380/75
f 340/373/89 339/378/89 371/378/89 372/373/89
f 327/383/76 326/380/76 358/380/76 359/383/76
f 341/372/90 340/373/90 372/373/90 373/372/90
f 328/385/77 327/383/77 359/383/77 360/385/77
f 342/387/91 341/372/91 373/372/91 374/387/91
f 329/388/78 328/385/78 360/385/78 361/388/78
f 343/390/92 342/387/92 374/387/92 375/390/92
f 330/393/79 329/388/79 361/388/79 362/393/79
f 440/463/102 192/464/102 195/465/102 436/466/102 437/467/102
f 453/468/102 456/469/102 194/255/102 191/256/102 452/470/102
f 436/466/103 195/465/103 198/471/103 489/472/103 435/473/103
f 457/474/103 460/475/103 196/260/103 194/255/103 456/469/103
f 489/472/104 198/471/104 201/476/104 485/477/104 486/478/104
f 461/479/104 467/480/104 199/262/104 196/260/104 460/475/104
f 485/477/105 201/476/105 204/481/105 482/482/105 481/483/105
f 468/484/105 471/485/105 203/264/105 199/262/105 467/480/105
f 482/482/106 204/481/106 207/486/106 475/487/106 476/488/106
f 206/268/106 203/264/106 471/485/106 472/489/106 477/490/106
f 475/487/107 207/486/107 210/491/107 464/492/107 466/493/107 470/494/107
f 208/270/107 206/268/107 477/490/107 478/495/107 483/496/107 487/497/107
f 464/492/108 210/491/108 213/498/108 212/273/108 208/270/108 487/497/108 465/499/108
f 212/273/109 213/498/109 216/500/109 215/276/109
f 215/276/110 216/500/110 219/501/110 218/278/110
f 218/278/111 219/501/111 222/502/111 221/280/111
f 221/280/112 222/502/112 225/503/112 224/283/112
f 224/283/113 225/503/113 228/504/113 382/505/113 383/506/113 431/507/113 227/286/113
f 382/505/114 228/504/114 231/508/114 387/509/114 386/510/114 385/511/114 384/512/114
f 227/286/114 431/507/114 430/513/114 429/514/114 428/515/114 427/516/114 230/288/114
f 387/509/115 231/508/115 234/517/115 390/518/115 389/519/115 388/520/115
f 230/288/115 427/516/115 426/521/115 425/522/115 424/523/115 232/291/115
f 390/518/116 234/517/116 237/524/116 392/525/116 391/526/116
f 422/527/116 235/293/116 232/291/116 424/523/116 423/528/116
f 392/525/117 237/524/117 240/529/117 394/530/117 393/531/117
f 420/532/117 239/295/117 235/293/117 422/527/117 421/533/117
f 395/534/118 394/530/118 240/529/118 243/535/118 397/536/118 396/537/118
f 417/538/118 241/298/118 239/295/118 420/532/118 419/532/118 418/539/118
f 243/535/119 246/540/119 399/541/119 398/542/119 397/536/119
f 415/543/119 245/301/119 241/298/119 417/538/119 416/544/119
f 249/545/120 402/546/120 401/547/120 400/548/120 399/541/120 246/540/120
f 412/549/120 248/303/120 245/301/120 415/543/120 414/550/120 413/551/120
f 402/546/121 249/545/121 252/552/121 406/553/121 405/554/121 404/555/121 403/556/121
f 408/557/121 251/305/121 248/303/121 412/549/121 411/558/121 410/559/121 409/560/121
f 255/561/122 254/307/122 251/305/122 408/557/122 407/562/122 406/553/122 252/552/122
f 254/307/123 255/561/123 258/563/123 257/309/123
f 257/309/124 258/563/124 261/564/124 260/312/124
f 260/312/125 261/564/125 264/565/125 263/315/125
f 263/315/126 264/565/126 267/566/126 266/317/126
f 269/319/127 266/317/127 267/566/127 270/567/127 473/568/127 474/569/127 479/570/127
f 270/567/128 273/571/128 462/572/128 463/573/128 469/574/128 473/568/128
f 271/322/128 269/319/128 479/570/128 480/575/128 484/576/128 488/577/128
f 273/571/129 276/578/129 458/579/129 459/580/129 462/572/129
f 275/325/129 271/322/129 488/577/129 432/581/129 433/582/129
f 276/578/130 279/583/130 454/584/130 455/585/130 458/579/130
f 278/327/130 275/325/130 433/582/130 434/586/130 439/587/130
f 279/583/131 282/588/131 450/589/131 451/590/131 454/584/131
f 443/591/131 281/330/131 278/327/131 439/587/131 438/592/131
f 216/593/132 213/458/132 210/457/132 207/456/132 204/455/132 201/454/132 198/433/132 195/434/132 192/594/132 285/436/132 282/437/132 279/438/132 276/439/132 273/440/132 270/441/132 267/442/132 264/595/132 261/442/132 258/441/132 255/440/132 252/439/132 249/438/132 246/437/132 243/436/132 240/594/132 237/434/132 234/433/132 231/454/132 228/455/132 225/456/132 222/457/132 219/458/132
f 282/588/133 285/596/133 447/597/133 448/598/133 450/589/133
f 446/599/133 284/332/133 281/330/133 443/591/133 442/600/133
f 285/596/134 192/601/134 440/602/134 441/602/134 444/603/134 447/597/134
f 449/604/134 452/605/134 191/334/134 284/332/134 446/599/134 445/606/134
f 284/337/135 191/338/135 194/339/135 196/340/135 199/341/135 203/342/135 206/343/135 208/344/135 212/345/135 215/346/135 218/345/135 221/344/135 224/343/135 227/342/135 230/341/135 232/340/135 235/339/135 239/338/135 241/337/135 245/356/135 248/357/135 251/358/135 254/359/135 257/360/135 260/361/135 263/362/135 266/361/135 269/360/135 271/359/135 275/358/135 278/357/135 281/356/135
